# xmcd
# 
# Track frame offsets:
#     150
#     16091
#     37968
#     57241
#     80824
#     104774
#     120619
#     152968
#     185434
#     208220
#     238602
# 
# Disc length: 3489
# 
# Revision: 0
# Processed by: cddbd v1.5.2PL0 Copyright (c) Steve Scherf et al.
# Submitted via: fre:ac v1.0.31
# 
DISCID=950d9f0b
DTITLE=Shirley Horn - May the Music N - May The Music Never End
DYEAR=2003
DGENRE=Jazz
TTITLE0=Forget Me
TTITLE1=If You Go Away
TTITLE2=Yesterday
TTITLE3=Take Love Easy
TTITLE4=Never Let Me Go
TTITLE5=Watch What Happens
TTITLE6=Ill Wind
TTITLE7=Maybe September
TTITLE8=Everything Must Change
TTITLE9=This Is All I Ask
TTITLE10=May the Music Never End
EXTD=YEAR: 2003
EXTT0=
EXTT1=
EXTT2=
EXTT3=
EXTT4=
EXTT5=
EXTT6=
EXTT7=
EXTT8=
EXTT9=
EXTT10=
PLAYORDER=
